<svg xmlns="http://www.w3.org/2000/svg" viewBox="0 0 1024 1024" role="img" aria-label="RootWork root icon">
  <defs>
    <linearGradient id="leafGradient" x1="0" x2="0" y1="0" y2="1">
      <stop offset="0%" stop-color="#d3a457"/>
      <stop offset="100%" stop-color="#b88733"/>
    </linearGradient>
  </defs>
  <rect width="1024" height="1024" fill="#0f392e" rx="120"/>
  <g fill="url(#leafGradient)" stroke="none">
    <path d="M512 185c-78 66-96 150-46 226 18-15 38-26 46-29 8 3 28 14 46 29 50-76 32-160-46-226z"/>
    <path d="M347 286c-19 85 19 157 99 188-1-35-2-61 3-77 5-16 19-40 30-55-52-61-95-73-132-56z"/>
    <path d="M677 286c-37-17-80-5-132 56 11 15 25 39 30 55 5 16 4 42 3 77 80-31 118-103 99-188z"/>
    <path d="M476 452c-6 80-9 131-34 161-17 20-47 35-85 46-15 4-14 18 2 18 29-1 73-11 104-30-8 57-33 95-64 118-23 17-50 29-83 37-11 3-10 16 1 16 33 1 83-12 121-34 32-19 59-48 73-86 4 59 18 98 39 125 24 32 56 54 95 69 11 4 17-11 8-17-34-22-55-53-66-94-7-28-9-62-4-104 18 20 52 38 80 44 12 2 17-14 6-18-29-10-54-26-69-44-28-35-34-85-40-144l-10-103h-74z"/>
  </g>
</svg>
